<svg xmlns="http://www.w3.org/2000/svg" xmlns:xlink="http://www.w3.org/1999/xlink" fill="none" version="1.1" width="32" height="32" viewBox="0 0 32 32"><defs><clipPath id="master_svg0_543_20244"><rect x="0" y="0" width="32" height="32" rx="16"/></clipPath><linearGradient x1="0.7189188003540039" y1="-0.3287185728549957" x2="0.3607255678195705" y2="1.04815055019539" id="master_svg1_354_28610"><stop offset="0%" stop-color="#FFE580" stop-opacity="1"/><stop offset="99.99998807907104%" stop-color="#FF6004" stop-opacity="1"/><stop offset="99.99998807907104%" stop-color="#FF5B00" stop-opacity="1"/></linearGradient><linearGradient x1="0.25423023104667664" y1="0.17722368240356445" x2="0.5851718649430105" y2="0.777629470184533" id="master_svg2_508_33739"><stop offset="0%" stop-color="#FFBD4A" stop-opacity="1"/><stop offset="100%" stop-color="#FF7E1F" stop-opacity="0"/></linearGradient><linearGradient x1="0.438120037317276" y1="0.5" x2="0.560329237220241" y2="1.1200830059542195" id="master_svg3_508_33479"><stop offset="20.826666057109833%" stop-color="#CA5804" stop-opacity="1"/><stop offset="100%" stop-color="#E06810" stop-opacity="0"/></linearGradient></defs><g clip-path="url(#master_svg0_543_20244)"><rect x="0" y="0" width="32" height="32" rx="16" fill="#29E154" fill-opacity="1"/><g><path d="M5.6542623515625,22.2713466484375C4.6408674115625,20.7912376484375,4.3599853515625,19.0815126484375,4.3599853515625,17.6952926484375C4.3599853515625,15.4085435484375,5.1667742115625,13.291656948437499,6.5361807515625,11.5665659484375L6.9220733515625,9.463336948437501L7.4437115515625,6.6200520984375C7.6033613515625,5.7502509484375,8.6210255515625,5.3490669384375,9.331341251562499,5.8765812384375L10.859544751562499,7.0101401484375L11.9600224515625,7.827018748437499L13.3610162515625,8.8666832484375C14.1993942515625,8.6925523484375,15.0719213515625,8.6003656484375,15.9683533515625,8.6003656484375L16.0000003515625,8.6004290484375C16.0105493515625,8.6003875484375,16.0210983515625,8.6003656484375,16.0316463515625,8.6003656484375C16.928078351562498,8.6003656484375,17.8006053515625,8.6925523484375,18.6389833515625,8.8666832484375L20.0399783515625,7.827018748437499L21.1404553515625,7.0101401484375L22.6686593515625,5.8765812384375C23.3789753515625,5.3490669384375,24.3966393515625,5.7502509484375,24.5562873515625,6.6200520984375L25.0779263515625,9.463336948437501L25.4638193515625,11.5665659484375C26.8332253515625,13.291656948437499,27.6400143515625,15.4085435484375,27.6400143515625,17.6952926484375C27.6400143515625,19.0815126484375,27.3591323515625,20.7912376484375,26.3457373515625,22.2713466484375C24.1797863515625,25.3024236484375,20.4728263515625,26.3600136484375,16.0316463515625,26.3600136484375L16.0000003515625,26.3599946484375L15.9683533515625,26.3600136484375C11.5271735515625,26.3600136484375,7.8202128515625,25.3024236484375,5.6542623515625,22.2713466484375Z" fill-rule="evenodd" fill="#FFFFFF" fill-opacity="1"/></g><path d="M19.753579584375,13.8328857421875L17.845458984375,13.8328857421875L17.845458984375,19.2966709421875L20.151423684375,19.2966709421875L19.753579584375,13.8328857421875Z" fill="#000000" fill-opacity="1" style="mix-blend-mode:passthrough"/><path d="M12.6782598296875,13.742431640625L11.0467529296875,15.373628940625L12.4989729296875,16.628396040625L11.2670192996875,17.692814340625L12.8976721296875,19.323158240625L14.1586535296875,18.062415640624998L15.5784316296875,16.642906640625L14.1424322296875,15.207180540625L12.6782598296875,13.742431640625Z" fill="#000000" fill-opacity="1" style="mix-blend-mode:passthrough"/><path d="M20.8589215,20.38844822421875C19.464291799999998,20.520375724218752,18.0491521,20.53145502421875,16.62209892,20.47226472421875C16.20607589,20.45501042421875,15.89008656,20.83991862421875,16.036300145,21.22978302421875C16.42777255,22.27360772421875,17.0608966,23.24879932421875,17.8960153,24.08659172421875C19.4903305,25.68601032421875,21.5348229,26.52431032421875,23.4967666,26.38305732421875C24.6930695,26.29692832421875,25.7818413,25.818084324218752,26.562829,25.03459732421875C28.697148,22.89344592421875,28.274555,19.00524902421875,25.6178503,16.34003922421875C24.682022099999998,15.40121592421875,23.5783749,14.71886655421875,22.406271,14.34677777621875C21.9934945,14.21574026421875,21.6223078,14.58624410421875,21.6967998,15.01286566421875C21.8876901,16.106095824218748,22.042773699999998,17.19548342421875,22.1385374,18.27849482421875C22.1545901,18.46004342421875,22.0819364,18.63657852421875,21.9675765,18.77849192421875C21.7233462,19.08156682421875,21.5465221,19.44244292421875,21.4485435,19.83559222421875C21.3770661,20.12239932421875,21.1531878,20.36061192421875,20.858922,20.38844872421875" fill-rule="evenodd" fill="url(#master_svg1_354_28610)" fill-opacity="1" style="mix-blend-mode:passthrough"/><path d="M25.0698952859375,21.815315203906252Q22.9538035859375,21.815315203906252,18.3656005859375,21.20947050390625C20.9753551859375,19.39135190390625,21.965302985937498,18.25791284390625,22.0505935859375,18.01910400390625Q23.2509302859375,20.31793570390625,24.817438585937502,19.32287030390625L25.0698952859375,21.815315203906252Z" fill-rule="evenodd" fill="url(#master_svg2_508_33739)" fill-opacity="1" transform="matrix(0.8046217560768127,0.5937877297401428,-0.5937877297401428,0.8046217560768127,14.287761649506137,-7.3847273798855895)"/><path d="M23.4683685421875,23.065482634375Q21.9472003021875,23.384741334375,21.3208310421875,21.834057534375Q21.1386180031875,21.203494234375,21.2313486601875,20.420198834375Q21.3267978721875,19.746431584375,21.6787841621875,19.239990234375L21.6000341821875,19.399990234375C21.4956701721875,19.670677334375,21.4583665421875,20.435676734375,21.4800341721875,20.439990134375Q21.4800341721875,21.032898634375,21.6964477021875,21.582978734375Q22.2603820421875,22.974421934375002,23.5200731421875,22.974422434375L23.4683685421875,23.065482634375Z" fill-rule="evenodd" fill="url(#master_svg3_508_33479)" fill-opacity="1"/></g></svg>